<?xml version="1.0" encoding="UTF-8"?>
<svg version="1.1" xmlns="http://www.w3.org/2000/svg" width="572" height="572">
<path d="M0 0 C3.17953983 1.37298714 5.30484614 3.6700847 7.69012451 6.10682678 C8.227155 6.64341919 8.76418549 7.1800116 9.31748962 7.73286438 C11.08855446 9.50601712 12.84876 11.28955453 14.60906982 13.07337952 C15.83581105 14.30571667 17.06321686 15.5373926 18.29125977 16.76843262 C21.52010231 20.00872409 24.73983416 23.25792387 27.95776367 26.50904846 C31.24363894 29.82562337 34.53803362 33.1337116 37.83172607 36.44252014 C44.29192498 42.93488406 50.74253272 49.43668901 57.18719482 55.94447327 C50.93162464 63.33008866 50.93162464 63.33008866 47.75750732 66.47181702 C46.90672607 67.31776428 46.90672607 67.31776428 46.03875732 68.18080139 C45.18410889 69.02288147 45.18410889 69.02288147 44.31219482 69.88197327 C43.71922607 70.4704303 43.12625732 71.05888733 42.51531982 71.66517639 C41.07493016 73.09395001 39.63139812 74.51955458 38.18719482 75.94447327 C36.52675525 74.5218137 34.86744365 73.09792225 33.21063232 71.67103577 C31.87190662 70.52872541 30.52299313 69.3982379 29.16375732 68.28041077 C28.5321167 67.75705139 27.90047607 67.23369202 27.24969482 66.69447327 C26.66317139 66.21494202 26.07664795 65.73541077 25.47235107 65.24134827 C24.18719482 63.94447327 24.18719482 63.94447327 24.18719482 61.94447327 C23.52719482 61.94447327 22.86719482 61.94447327 22.18719482 61.94447327 C22.18719482 61.28447327 22.18719482 60.62447327 22.18719482 59.94447327 C20.86719482 59.28447327 19.54719482 58.62447327 18.18719482 57.94447327 C17.36219482 58.95509827 16.53719482 59.96572327 15.68719482 61.00697327 C10.80156308 66.71265195 5.03736481 71.26433728 -0.81280518 75.94447327 C-6.42280518 70.33447327 -12.03280518 64.72447327 -17.81280518 58.94447327 C-21.2654021 60.67077173 -22.88519118 61.776728 -25.48468018 64.42103577 C-26.14854736 65.09134827 -26.81241455 65.76166077 -27.49639893 66.45228577 C-28.17831299 67.15095764 -28.86022705 67.84962952 -29.56280518 68.56947327 C-30.26018799 69.27587952 -30.9575708 69.98228577 -31.67608643 70.71009827 C-33.39293005 72.4504603 -35.1049235 74.19532307 -36.81280518 75.94447327 C-40.07146878 74.51801546 -42.21529058 72.77743165 -44.70343018 70.24916077 C-45.41241455 69.53373108 -46.12139893 68.81830139 -46.85186768 68.08119202 C-47.58147705 67.33482483 -48.31108643 66.58845764 -49.06280518 65.81947327 C-49.8078833 65.0653717 -50.55296143 64.31127014 -51.32061768 63.53431702 C-53.15593938 61.67546555 -54.98642427 59.81210322 -56.81280518 57.94447327 C-54.90019821 54.02423551 -52.75273978 51.17840133 -49.81280518 47.94447327 C-49.15280518 47.94447327 -48.49280518 47.94447327 -47.81280518 47.94447327 C-47.81280518 47.28447327 -47.81280518 46.62447327 -47.81280518 45.94447327 C-47.15280518 45.94447327 -46.49280518 45.94447327 -45.81280518 45.94447327 C-45.81280518 45.28447327 -45.81280518 44.62447327 -45.81280518 43.94447327 C-45.15280518 43.94447327 -44.49280518 43.94447327 -43.81280518 43.94447327 C-43.60655518 43.41337952 -43.40030518 42.88228577 -43.18780518 42.33509827 C-41.23319326 38.93673891 -38.59156801 36.43391398 -35.81280518 33.69447327 C-34.99296143 32.86302795 -34.99296143 32.86302795 -34.15655518 32.01478577 C-30.06619188 27.94447327 -30.06619188 27.94447327 -27.81280518 27.94447327 C-27.81280518 27.28447327 -27.81280518 26.62447327 -27.81280518 25.94447327 C-27.15280518 25.94447327 -26.49280518 25.94447327 -25.81280518 25.94447327 C-25.81280518 25.28447327 -25.81280518 24.62447327 -25.81280518 23.94447327 C-25.15280518 23.94447327 -24.49280518 23.94447327 -23.81280518 23.94447327 C-23.81280518 23.28447327 -23.81280518 22.62447327 -23.81280518 21.94447327 C-23.15280518 21.94447327 -22.49280518 21.94447327 -21.81280518 21.94447327 C-21.81280518 21.28447327 -21.81280518 20.62447327 -21.81280518 19.94447327 C-21.15280518 19.94447327 -20.49280518 19.94447327 -19.81280518 19.94447327 C-19.81280518 19.28447327 -19.81280518 18.62447327 -19.81280518 17.94447327 C-19.15280518 17.94447327 -18.49280518 17.94447327 -17.81280518 17.94447327 C-17.15280518 16.62447327 -16.49280518 15.30447327 -15.81280518 13.94447327 C-15.15280518 13.94447327 -14.49280518 13.94447327 -13.81280518 13.94447327 C-13.46862549 13.11882874 -13.46862549 13.11882874 -13.11749268 12.27650452 C-11.43822894 9.27494628 -9.33763786 7.09233586 -6.93780518 4.63197327 C-5.64229736 3.27652405 -5.64229736 3.27652405 -4.32061768 1.89369202 C-1.81280518 -0.05552673 -1.81280518 -0.05552673 0 0 Z " fill="#2090F4" transform="translate(128.81280517578125,250.05552673339844)"/>
<path d="M0 0 C5.14829744 4.30627256 9.95752072 8.82311931 14.68359375 13.5859375 C15.38396255 14.28772125 16.08433136 14.989505 16.80592346 15.71255493 C19.01883027 17.93101136 21.22821416 20.15293815 23.4375 22.375 C24.94703314 23.88955466 26.45679657 25.40387985 27.96679688 26.91796875 C31.64719702 30.60933099 35.32471957 34.30354069 39 38 C32.74442981 45.38561539 32.74442981 45.38561539 29.5703125 48.52734375 C29.003125 49.09130859 28.4359375 49.65527344 27.8515625 50.23632812 C27.28179687 50.79771484 26.71203125 51.35910156 26.125 51.9375 C25.53203125 52.52595703 24.9390625 53.11441406 24.328125 53.72070312 C22.88773534 55.14947674 21.4442033 56.57508132 20 58 C18.33956043 56.57734043 16.68024882 55.15344899 15.0234375 53.7265625 C13.68471179 52.58425215 12.3357983 51.45376463 10.9765625 50.3359375 C10.34492188 49.81257813 9.71328125 49.28921875 9.0625 48.75 C8.47597656 48.27046875 7.88945312 47.7909375 7.28515625 47.296875 C6 46 6 46 6 44 C5.34 44 4.68 44 4 44 C4 43.34 4 42.68 4 42 C2.515 41.505 2.515 41.505 1 41 C-0.40234375 39.57421875 -0.40234375 39.57421875 -1.9375 37.6875 C-6.93351269 31.77626947 -12.49136153 26.42723002 -18 21 C-16.61403133 17.86594332 -15.00928844 15.78165818 -12.55859375 13.3984375 C-11.55989258 12.41617187 -11.55989258 12.41617187 -10.54101562 11.4140625 C-9.84685547 10.74117188 -9.15269531 10.06828125 -8.4375 9.375 C-7.05901463 8.03088131 -5.68260599 6.68462847 -4.30859375 5.3359375 C-3.39291626 4.44720947 -3.39291626 4.44720947 -2.45874023 3.54052734 C-0.90189218 2.04565952 -0.90189218 2.04565952 0 0 Z " fill="#4540E9" transform="translate(147,268)"/>
<path d="M0 0 C4.021875 -0.0825 8.04375 -0.165 12.1875 -0.25 C13.44715576 -0.28641602 14.70681152 -0.32283203 16.00463867 -0.36035156 C17.50861206 -0.37533691 17.50861206 -0.37533691 19.04296875 -0.390625 C20.06414795 -0.41157227 21.08532715 -0.43251953 22.13745117 -0.45410156 C25.74876717 0.11878098 27.38934073 1.49614175 30 4 C31.71535658 7.43071316 31.4006478 11.24058819 31 15 C29.5 17.5625 29.5 17.5625 28 19 C28.66 19.639375 29.32 20.27875 30 20.9375 C32.6627446 25.01482767 32.87823269 28.24721133 32 33 C30.20606332 35.87029869 29.01736724 37.49131638 26 39 C24.0406396 39.08510205 22.07837206 39.10717656 20.1171875 39.09765625 C19.06644043 39.09515869 18.01569336 39.09266113 16.93310547 39.09008789 C15.59393066 39.08098389 14.25475586 39.07187988 12.875 39.0625 C8.62625 39.041875 4.3775 39.02125 0 39 C0 26.13 0 13.26 0 0 Z M8 7 C8 9.97 8 12.94 8 16 C9.93681161 16.08107583 11.8745934 16.13922475 13.8125 16.1875 C14.89144531 16.22230469 15.97039062 16.25710938 17.08203125 16.29296875 C19.98752193 16.2441655 19.98752193 16.2441655 21.8984375 14.65234375 C23.26688086 12.96518777 23.26688086 12.96518777 22.8125 10.375 C22.25355766 7.83447997 22.25355766 7.83447997 20 7 C17.95944995 6.92934383 15.91665743 6.91578024 13.875 6.9375 C12.77929688 6.94652344 11.68359375 6.95554687 10.5546875 6.96484375 C9.29011719 6.98224609 9.29011719 6.98224609 8 7 Z M8 23 C8 25.97 8 28.94 8 32 C10.12472576 32.05386629 12.24983652 32.09273071 14.375 32.125 C16.15003906 32.15980469 16.15003906 32.15980469 17.9609375 32.1953125 C21.11153817 32.32866229 21.11153817 32.32866229 23 30 C23.33333333 27.5 23.33333333 27.5 23 25 C21.11153817 22.67133771 21.11153817 22.67133771 17.9609375 22.8046875 C16.18589844 22.83949219 16.18589844 22.83949219 14.375 22.875 C12.59222656 22.90207031 12.59222656 22.90207031 10.7734375 22.9296875 C9.40058594 22.96449219 9.40058594 22.96449219 8 23 Z " fill="#2E1A72" transform="translate(395,270)"/>
<path d="M0 0 C2.80043169 2.03031297 4.64597822 3.88885027 6.5 6.8125 C6.5 8.1325 6.5 9.4525 6.5 10.8125 C2.045 11.3075 2.045 11.3075 -2.5 11.8125 C-2.83 10.4925 -3.16 9.1725 -3.5 7.8125 C-8.55009595 6.87463918 -8.55009595 6.87463918 -13.5 7.8125 C-14.23323796 9.82758358 -14.23323796 9.82758358 -14.5 11.8125 C-13.95472656 11.99425781 -13.40945313 12.17601562 -12.84765625 12.36328125 C-11.25858434 12.89297189 -9.67147351 13.42856738 -8.0859375 13.96875 C-6.41748182 14.51314037 -4.73482691 15.01654616 -3.0390625 15.46875 C1.04449506 16.60834746 3.10733944 17.39110818 6.0625 20.5625 C7.74311814 24.3621584 8.02362754 26.69828361 7.5 30.8125 C6.0259059 34.33394702 3.92781014 37.05370356 0.6328125 39.08203125 C-5.08848537 41.04152338 -12.09443829 40.8161258 -17.859375 39.1171875 C-22.05384234 36.98410368 -23.90379116 34.13165332 -25.5 29.8125 C-25.5 29.1525 -25.5 28.4925 -25.5 27.8125 C-22.53 27.1525 -19.56 26.4925 -16.5 25.8125 C-15.96375 26.616875 -15.4275 27.42125 -14.875 28.25 C-12.699711 31.02301581 -12.699711 31.02301581 -9.5 31.75 C-6.4333422 31.8138887 -5.032107 31.46810842 -2.5 29.8125 C-2.5 28.4925 -2.5 27.1725 -2.5 25.8125 C-3.51320313 25.58175781 -4.52640625 25.35101563 -5.5703125 25.11328125 C-19.79058418 21.72202094 -19.79058418 21.72202094 -23.5 16.8125 C-24.81879621 12.57847006 -25.01045145 9.16369502 -23.4375 5 C-16.98204482 -2.28841713 -9.0331429 -3.06481634 0 0 Z " fill="#2E1B73" transform="translate(455.5,270.1875)"/>
<path d="M0 0 C4.00125 -0.0825 8.0025 -0.165 12.125 -0.25 C13.37555176 -0.28641602 14.62610352 -0.32283203 15.91455078 -0.36035156 C22.23200939 -0.4234549 26.28877859 -0.40983014 31 4 C34.01012811 8.51519216 34.26308217 12.30458154 33.4375 17.625 C31.57241574 22.00389347 29.94773541 23.3681764 26 26 C22.20173943 27.0364745 18.61066914 27.10561175 14.6875 27.0625 C12.810625 27.041875 10.93375 27.02125 9 27 C9 30.96 9 34.92 9 39 C6.03 39 3.06 39 0 39 C0 26.13 0 13.26 0 0 Z M9 8 C9 11.63 9 15.26 9 19 C10.7325 19.04125 12.465 19.0825 14.25 19.125 C15.22453125 19.14820313 16.1990625 19.17140625 17.203125 19.1953125 C20.06332028 18.99557819 21.65802676 18.63343168 24 17 C25.1640191 12.9134809 25.1640191 12.9134809 24 9 C20.71480525 7.90493508 18.26336585 7.90039392 14.8125 7.9375 C13.72582031 7.94652344 12.63914062 7.95554687 11.51953125 7.96484375 C10.68808594 7.97644531 9.85664063 7.98804688 9 8 Z " fill="#2E1A72" transform="translate(272,270)"/>
<path d="M0 0 C1.23556641 0.01740234 1.23556641 0.01740234 2.49609375 0.03515625 C3.32238281 0.04417969 4.14867187 0.05320312 5 0.0625 C5.63808594 0.07410156 6.27617187 0.08570313 6.93359375 0.09765625 C8.73509283 4.20313946 10.5313341 8.31087271 12.32299805 12.4206543 C12.9316274 13.81481955 13.54162266 15.20838941 14.15307617 16.60131836 C17.40245053 24.00606597 20.55843127 31.35479804 22.93359375 39.09765625 C19.63359375 39.09765625 16.33359375 39.09765625 12.93359375 39.09765625 C11.67694397 36.19165364 10.93359375 34.30161041 10.93359375 31.09765625 C2.51859375 31.59265625 2.51859375 31.59265625 -6.06640625 32.09765625 C-7.05640625 34.40765625 -8.04640625 36.71765625 -9.06640625 39.09765625 C-12.36640625 39.09765625 -15.66640625 39.09765625 -19.06640625 39.09765625 C-15.08785872 28.96082505 -11.04993265 18.86356082 -6.62890625 8.91015625 C-6.28730469 8.13881348 -5.94570313 7.3674707 -5.59375 6.57275391 C-2.70386508 0.1277819 -2.70386508 0.1277819 0 0 Z M1.93359375 12.09765625 C1.09785552 13.7422697 0.26506493 15.38838138 -0.56640625 17.03515625 C-1.03046875 17.95167969 -1.49453125 18.86820312 -1.97265625 19.8125 C-3.13836096 21.82575317 -3.13836096 21.82575317 -3.06640625 23.09765625 C0.23359375 23.09765625 3.53359375 23.09765625 6.93359375 23.09765625 C6.47984375 21.65390625 6.02609375 20.21015625 5.55859375 18.72265625 C5.30335938 17.91054688 5.048125 17.0984375 4.78515625 16.26171875 C4.03505092 13.9330644 4.03505092 13.9330644 1.93359375 12.09765625 Z " fill="#2E1B73" transform="translate(371.06640625,269.90234375)"/>
<path d="M0 0 C2.97 0 5.94 0 9 0 C13.34132967 8.41527944 17.22420977 16.95238914 20.875 25.6875 C21.37257812 26.86505859 21.87015625 28.04261719 22.3828125 29.25585938 C26 37.85661702 26 37.85661702 26 39 C22.7 39 19.4 39 16 39 C15.01 36.69 14.02 34.38 13 32 C7.72 32 2.44 32 -3 32 C-3.99 34.31 -4.98 36.62 -6 39 C-9.3 39 -12.6 39 -16 39 C-13.40433638 30.53832401 -9.86404519 22.52813981 -6.3125 14.4375 C-5.6995152 13.03335787 -5.08688215 11.62906213 -4.47460938 10.22460938 C-2.98712342 6.81462598 -1.49489052 3.40674496 0 0 Z M4 12 C2.68 15.63 1.36 19.26 0 23 C3.3 23 6.6 23 10 23 C8.68 19.37 7.36 15.74 6 12 C5.34 12 4.68 12 4 12 Z " fill="#2E1A73" transform="translate(217,270)"/>
<path d="M0 0 C3.13405668 1.38596867 5.21834182 2.99071156 7.6015625 5.44140625 C8.25640625 6.10720703 8.91125 6.77300781 9.5859375 7.45898438 C10.25882813 8.15314453 10.93171875 8.84730469 11.625 9.5625 C12.96911869 10.94098537 14.31537153 12.31739401 15.6640625 13.69140625 C16.55279053 14.60708374 16.55279053 14.60708374 17.45947266 15.54125977 C18.95434048 17.09810782 18.95434048 17.09810782 21 18 C19.5735422 21.2586636 17.83295838 23.4024854 15.3046875 25.890625 C14.58925781 26.59960938 13.87382813 27.30859375 13.13671875 28.0390625 C12.39035156 28.76867187 11.64398438 29.49828125 10.875 30.25 C9.74384766 31.36761719 9.74384766 31.36761719 8.58984375 32.5078125 C6.73099228 34.3431342 4.86762995 36.1736191 3 38 C-0.2586636 36.5735422 -2.4024854 34.83295838 -4.890625 32.3046875 C-5.59960938 31.58925781 -6.30859375 30.87382812 -7.0390625 30.13671875 C-7.76867187 29.39035156 -8.49828125 28.64398438 -9.25 27.875 C-9.99507813 27.12089844 -10.74015625 26.36679687 -11.5078125 25.58984375 C-13.3431342 23.73099228 -15.1736191 21.86762995 -17 20 C-15.08739303 16.07976225 -12.9399346 13.23392806 -10 10 C-9.34 10 -8.68 10 -8 10 C-8 9.34 -8 8.68 -8 8 C-7.34 8 -6.68 8 -6 8 C-6 7.34 -6 6.68 -6 6 C-5.34 6 -4.68 6 -4 6 C-3.566875 5.071875 -3.566875 5.071875 -3.125 4.125 C-2 2 -2 2 0 0 Z " fill="#D07EE4" transform="translate(89,288)"/>
<path d="M0 0 C4.6930102 3.83973562 9.13544377 7.91896896 13.5 12.125 C14.05268555 12.6396582 14.60537109 13.15431641 15.17480469 13.68457031 C16.71875 15.1953125 16.71875 15.1953125 19 18 C18.76747129 21.75197251 16.78589347 23.56490417 14.18359375 26.109375 C13.41982422 26.86347656 12.65605469 27.61757813 11.86914062 28.39453125 C10.66547852 29.56048828 10.66547852 29.56048828 9.4375 30.75 C8.22803711 31.93916016 8.22803711 31.93916016 6.99414062 33.15234375 C5.00266222 35.10847046 3.00452279 37.05725719 1 39 C-3.70341126 35.07711742 -8.14273951 30.98981304 -12.4375 26.625 C-13.24864258 25.80708984 -13.24864258 25.80708984 -14.07617188 24.97265625 C-15.38646723 23.65076536 -16.69358284 22.32572382 -18 21 C-16.61403133 17.86594332 -15.00928844 15.78165818 -12.55859375 13.3984375 C-11.55989258 12.41617187 -11.55989258 12.41617187 -10.54101562 11.4140625 C-9.84685547 10.74117188 -9.15269531 10.06828125 -8.4375 9.375 C-7.05901463 8.03088131 -5.68260599 6.68462847 -4.30859375 5.3359375 C-3.39291626 4.44720947 -3.39291626 4.44720947 -2.45874023 3.54052734 C-0.90189218 2.04565952 -0.90189218 2.04565952 0 0 Z " fill="#316BF2" transform="translate(147,268)"/>
<path d="M0 0 C4.1724031 0.51006598 6.08024151 1.59504611 8.98828125 4.59765625 C9.69404297 5.31630859 10.39980469 6.03496094 11.12695312 6.77539062 C11.84818359 7.53013672 12.56941406 8.28488281 13.3125 9.0625 C14.05306641 9.82111328 14.79363281 10.57972656 15.55664062 11.36132812 C17.38043834 13.23219159 19.19424304 15.11174492 21 17 C18.83220689 21.84309854 15.31890774 25.08711009 11.625 28.8125 C10.95210937 29.51826172 10.27921875 30.22402344 9.5859375 30.95117188 C8.93109375 31.61310547 8.27625 32.27503906 7.6015625 32.95703125 C7.00682129 33.56522705 6.41208008 34.17342285 5.79931641 34.80004883 C4 36 4 36 2.03173828 35.92871094 C-0.56378314 34.74229379 -2.11401694 33.22430086 -4.109375 31.18359375 C-4.86347656 30.41982422 -5.61757812 29.65605469 -6.39453125 28.86914062 C-7.17183594 28.06669922 -7.94914062 27.26425781 -8.75 26.4375 C-9.54277344 25.63119141 -10.33554688 24.82488281 -11.15234375 23.99414062 C-13.10847046 22.00266222 -15.05725719 20.00452279 -17 18 C-16.06409496 16.8944811 -15.12620142 15.79064547 -14.1875 14.6875 C-13.66542969 14.07261719 -13.14335938 13.45773437 -12.60546875 12.82421875 C-9.6626898 9.48047722 -9.6626898 9.48047722 -8 8 C-7.34 8 -6.68 8 -6 8 C-6 7.34 -6 6.68 -6 6 C-5.34 6 -4.68 6 -4 6 C-4 5.34 -4 4.68 -4 4 C-3.34 4 -2.68 4 -2 4 C-2 3.34 -2 2.68 -2 2 C-1.34 2 -0.68 2 0 2 C0 1.34 0 0.68 0 0 Z " fill="#4DAAEB" transform="translate(107,270)"/>
<path d="M0 0 C4.70341126 3.92288258 9.14273951 8.01018696 13.4375 12.375 C14.24864258 13.19291016 14.24864258 13.19291016 15.07617188 14.02734375 C16.38646723 15.34923464 17.69358284 16.67427618 19 18 C17.72888715 21.76840022 16.46962454 23.82816994 13.375 26.3125 C8.98424502 29.96342081 4.98743483 33.91712125 1 38 C-5.78376359 32.44964797 -11.85522968 26.23557973 -18 20 C-16.5735422 16.7413364 -14.83295838 14.5975146 -12.3046875 12.109375 C-11.23154297 11.04589844 -11.23154297 11.04589844 -10.13671875 9.9609375 C-9.39035156 9.23132813 -8.64398438 8.50171875 -7.875 7.75 C-7.12089844 7.00492187 -6.36679688 6.25984375 -5.58984375 5.4921875 C-3.73099228 3.6568658 -1.86762995 1.8263809 0 0 Z " fill="#05BFF2" transform="translate(128,288)"/>
<path d="M0 0 C8.25 0 16.5 0 25 0 C25 2.64 25 5.28 25 8 C22.36 8 19.72 8 17 8 C17 15.92 17 23.84 17 32 C19.64 32 22.28 32 25 32 C25 34.31 25 36.62 25 39 C16.75 39 8.5 39 0 39 C0 36.69 0 34.38 0 32 C2.64 32 5.28 32 8 32 C8 24.08 8 16.16 8 8 C5.36 8 2.72 8 0 8 C0 5.36 0 2.72 0 0 Z " fill="#2D1A72" transform="translate(244,270)"/>
<path d="M0 0 C2.97 0 5.94 0 9 0 C10.26385302 10.83024818 9.70367132 21.13218742 9 32 C15.6 32 22.2 32 29 32 C29 34.31 29 36.62 29 39 C19.43 39 9.86 39 0 39 C0 26.13 0 13.26 0 0 Z " fill="#2D1A71" transform="translate(322,270)"/>
<path d="M0 0 C3 0.5625 3 0.5625 5.375 2.1875 C7.48706506 5.27436432 7.61195145 6.8907913 7 10.5625 C5.4375 13 5.4375 13 3 14.5625 C-0.36514555 14.38844075 -2.97642995 14.07428502 -6 12.5625 C-7.10052735 8.47482699 -7.45410747 6.41622204 -5.4375 2.625 C-3 0.5625 -3 0.5625 0 0 Z M-4 4.5625 C-4 6.5425 -4 8.5225 -4 10.5625 C-3.67 10.5625 -3.34 10.5625 -3 10.5625 C-3 8.5825 -3 6.6025 -3 4.5625 C-3.33 4.5625 -3.66 4.5625 -4 4.5625 Z M3 4.5625 C3 6.5425 3 8.5225 3 10.5625 C3.66 9.2425 4.32 7.9225 5 6.5625 C4.34 5.9025 3.68 5.2425 3 4.5625 Z M0 10.5625 C-0.33 11.2225 -0.66 11.8825 -1 12.5625 C-0.34 12.5625 0.32 12.5625 1 12.5625 C0.67 11.9025 0.34 11.2425 0 10.5625 Z " fill="#2F1E76" transform="translate(471,267.4375)"/>
</svg>
